<svg width="74" height="74" viewBox="0 0 74 74" fill="none" xmlns="http://www.w3.org/2000/svg">
<path fill-rule="evenodd" clip-rule="evenodd" d="M37 12.3334C30.458 12.3334 24.1839 14.9322 19.558 19.5581C14.9321 24.184 12.3333 30.4581 12.3333 37.0001C12.3333 43.5421 14.9321 49.8162 19.558 54.4421C24.1839 59.068 30.458 61.6668 37 61.6668C43.542 61.6668 49.8161 59.068 54.442 54.4421C59.0679 49.8162 61.6667 43.5421 61.6667 37.0001C61.6667 30.4581 59.0679 24.184 54.442 19.5581C49.8161 14.9322 43.542 12.3334 37 12.3334ZM6.16666 37.0001C6.16666 19.9708 19.9707 6.16675 37 6.16675C54.0292 6.16675 67.8333 19.9708 67.8333 37.0001C67.8333 54.0293 54.0292 67.8334 37 67.8334C19.9707 67.8334 6.16666 54.0293 6.16666 37.0001ZM26.2083 30.8334C25.6071 30.8334 24.8393 31.2157 24.3398 32.2147C23.9697 32.9393 23.3282 33.4882 22.5551 33.7418C21.782 33.9954 20.94 33.9332 20.2126 33.5686C19.4853 33.2041 18.9314 32.5669 18.6718 31.7958C18.4122 31.0247 18.468 30.1823 18.8268 29.4521C20.1712 26.7634 22.8567 24.6667 26.2083 24.6667C29.5599 24.6667 32.2424 26.7634 33.5898 29.4521C33.9487 30.1823 34.0044 31.0247 33.7448 31.7958C33.4852 32.5669 32.9314 33.2041 32.204 33.5686C31.4766 33.9332 30.6346 33.9954 29.8615 33.7418C29.0885 33.4882 28.447 32.9393 28.0768 32.2147C27.5773 31.2157 26.8127 30.8334 26.2083 30.8334ZM47.7917 30.8334C47.1904 30.8334 46.4227 31.2157 45.9232 32.2147C45.7437 32.5799 45.4937 32.906 45.1876 33.1741C44.8815 33.4422 44.5254 33.6471 44.1397 33.777C43.754 33.9068 43.3465 33.959 42.9406 33.9306C42.5347 33.9021 42.1384 33.7937 41.7746 33.6114C41.4108 33.429 41.0867 33.1765 40.8209 32.8684C40.5552 32.5602 40.3531 32.2025 40.2262 31.8158C40.0994 31.4292 40.0504 31.0213 40.0819 30.6156C40.1135 30.2099 40.225 29.8145 40.4102 29.4521C41.7576 26.7634 44.4401 24.6667 47.7917 24.6667C51.1432 24.6667 53.8257 26.7634 55.1732 29.4521C55.532 30.1823 55.5877 31.0247 55.3281 31.7958C55.0686 32.5669 54.5147 33.2041 53.7873 33.5686C53.0599 33.9332 52.218 33.9954 51.4449 33.7418C50.6718 33.4882 50.0303 32.9393 49.6602 32.2147C49.1607 31.2157 48.396 30.8334 47.7917 30.8334ZM26.529 44.2089C26.797 43.9051 27.1222 43.6571 27.486 43.479C27.8499 43.3009 28.2453 43.1963 28.6496 43.1711C29.0539 43.1459 29.4592 43.2006 29.8424 43.3321C30.2256 43.4637 30.579 43.6694 30.8827 43.9376C32.5168 45.3806 34.6536 46.2501 37 46.2501C39.3464 46.2501 41.4862 45.3806 43.1173 43.9376C43.7306 43.3962 44.5339 43.1207 45.3504 43.1716C46.1668 43.2225 46.9296 43.5956 47.471 44.2089C48.0123 44.8222 48.2879 45.6255 48.237 46.4419C48.1861 47.2584 47.813 48.0212 47.1997 48.5626C44.3858 51.0518 40.7569 52.4231 37 52.4168C33.2431 52.4231 29.6142 51.0518 26.8003 48.5626C26.4965 48.2946 26.2485 47.9694 26.0704 47.6055C25.8923 47.2417 25.7877 46.8463 25.7625 46.442C25.7373 46.0377 25.792 45.6323 25.9236 45.2492C26.0551 44.866 26.2608 44.5125 26.529 44.2089Z" fill="black"/>
</svg>
