<svg width="74" height="74" viewBox="0 0 74 74" fill="none" xmlns="http://www.w3.org/2000/svg">
<path d="M9.25 37C9.25 40.6442 9.96777 44.2527 11.3623 47.6195C12.7569 50.9862 14.801 54.0454 17.3778 56.6222C19.9546 59.199 23.0138 61.2431 26.3805 62.6377C29.7473 64.0322 33.3558 64.75 37 64.75C40.6442 64.75 44.2527 64.0322 47.6195 62.6377C50.9862 61.2431 54.0454 59.199 56.6222 56.6222C59.199 54.0454 61.2431 50.9862 62.6377 47.6195C64.0322 44.2527 64.75 40.6442 64.75 37C64.75 29.6402 61.8263 22.5819 56.6222 17.3778C51.4181 12.1737 44.3598 9.25 37 9.25C29.6402 9.25 22.5819 12.1737 17.3778 17.3778C12.1737 22.5819 9.25 29.6402 9.25 37Z" stroke="black" stroke-width="6" stroke-linecap="round" stroke-linejoin="round"/>
<path d="M37 21.5833V36.9999L46.25 46.2499" stroke="black" stroke-width="6" stroke-linecap="round" stroke-linejoin="round"/>
</svg>
